<svg width="440" height="440" viewBox="0 0 440 440" fill="none" xmlns="http://www.w3.org/2000/svg">
    <rect width="440" height="440" fill="white"/>
    <circle cx="218.08" cy="218.08" r="35" fill="black"/>
    <path d="M122.915 384.196C116.276 390.835 105.513 390.835 98.8737 384.196L55.9792 341.302C49.3403 334.663 49.3403 323.899 55.9792 317.26L127.159 246.08H261.031L122.915 384.196ZM317.259 55.9795C323.898 49.3406 334.663 49.3406 341.301 55.9795L384.196 98.874C390.834 105.513 390.834 116.276 384.196 122.915L311.031 196.08H177.159L317.259 55.9795Z" fill="black"/>
    <path d="M384.317 317.382C390.956 324.021 390.956 334.784 384.317 341.423L341.423 384.317C334.784 390.956 324.02 390.956 317.382 384.317L179.144 246.08H313.015L384.317 317.382ZM98.9958 56.1013C105.635 49.4624 116.398 49.4624 123.037 56.1013L263.015 196.08H129.144L56.1013 123.037C49.4623 116.398 49.4623 105.635 56.1013 98.9958L98.9958 56.1013Z" fill="black"/>
    <circle cx="218.08" cy="218.08" r="35" fill="black"/>
    <path d="M122.915 384.196C116.276 390.835 105.512 390.835 98.8734 384.196L55.9788 341.301C49.3404 334.662 49.3404 323.899 55.9788 317.26L127.159 246.08H261.031L122.915 384.196ZM317.26 55.9788C323.899 49.3404 334.662 49.3404 341.301 55.9788L384.196 98.8734C390.835 105.512 390.835 116.276 384.196 122.915L311.031 196.08H177.159L317.26 55.9788Z" fill="black"/>
    <path d="M384.317 317.381C390.956 324.02 390.956 334.784 384.317 341.423L341.422 384.317C334.784 390.956 324.019 390.956 317.38 384.317L179.143 246.08H313.016L384.317 317.381ZM98.9948 56.1006C105.634 49.4618 116.398 49.4619 123.037 56.1006L263.016 196.08H129.143L56.1002 123.037C49.4614 116.398 49.4614 105.634 56.1002 98.9952L98.9948 56.1006Z" fill="black"/>
</svg>